<?xml version="1.0" encoding="utf-8"?>
<!-- Generator: Adobe Illustrator 18.1.1, SVG Export Plug-In . SVG Version: 6.00 Build 0)  -->
<svg version="1.1" id="Слой_1" xmlns="http://www.w3.org/2000/svg" xmlns:xlink="http://www.w3.org/1999/xlink" x="0px" y="0px"
	 viewBox="0 0 331.408905 47.4472656" enable-background="new 0 0 331.408905 47.4472656" xml:space="preserve">
<polygon fill="#D71920" points="33.5266838,0.4539396 20.9912643,0.4539396 -0.000135,25.0999832 -0.000135,45.6157341 
	6.5462823,45.6157341 6.5462823,26.4099216 23.5664692,6.2806592 30.9621983,6.2806592 47.9733734,26.4099216 
	47.9733734,45.6157341 54.5180817,45.6157341 54.5180817,25.0999832 "/>
<g>
	<g>
		<path fill="#231F20" d="M88.7145691,0.7285156l10.3828125,25.5014648h-5.2460938l-2.4042969-6.1933594h-13.84375
			l-2.4042969,6.1933594h-5.2460938L80.3356628,0.7285156H88.7145691z M78.8786316,17.3046875h11.2929688L84.7077332,3.8251953
			h-0.3642578L78.8786316,17.3046875z"/>
		<path fill="#231F20" d="M113.3053894,0c2.2099609,0,4.2988281,0.3764648,6.2666016,1.1293945
			c1.9667969,0.7529297,3.6425781,1.7729492,5.0273438,3.0600586L122.7770691,6.375
			c-1.3837891-1.2866211-2.8349609-2.2158203-4.3525391-2.7866211c-1.5185547-0.5703125-3.1035156-0.8564453-4.7548828-0.8564453
			c-1.2382813,0-2.3798828,0.2128906-3.4238281,0.6376953c-1.0449219,0.425293-1.9492188,1.074707-2.7148438,1.9492188
			c-0.7646484,0.8740234-1.3603516,1.9853516-1.7851563,3.3334961C105.3210144,10,105.1091003,11.609375,105.1091003,13.4790039
			c0,1.9189453,0.2177734,3.5649414,0.6552734,4.9365234c0.4375,1.3725586,1.0439453,2.5019531,1.8212891,3.3881836
			c0.7773438,0.8867188,1.7177734,1.5424805,2.8232422,1.9672852c1.1054688,0.425293,2.3134766,0.637207,3.625,0.637207
			c1.0927734,0,2.0341797-0.0966797,2.8232422-0.2910156s1.4511719-0.4248047,1.9863281-0.6923828
			c0.6308594-0.2915039,1.1523438-0.6313477,1.5664063-1.0200195v-6.921875h-4.7363281v-2.3681641h10.0185547v10.0185547
			c-0.8984375,0.7285156-1.9433594,1.3725586-3.1328125,1.9306641c-1.0205078,0.4863281-2.2773438,0.9233398-3.7705078,1.3115234
			c-1.4941406,0.3886719-3.2001953,0.5830078-5.1191406,0.5830078c-2.1855469,0-4.1533203-0.2915039-5.9013672-0.8740234
			c-1.7490234-0.5830078-3.2421875-1.4448242-4.4814453-2.5869141c-1.2382813-1.1411133-2.1855469-2.5498047-2.8417969-4.2260742
			c-0.6552734-1.6757813-0.9833984-3.6064453-0.9833984-5.7924805c0-2.1855469,0.328125-4.1162109,0.9833984-5.7924805
			c0.65625-1.6757813,1.5849609-3.0839844,2.7871094-4.2255859s2.6601563-2.0039063,4.3720703-2.5869141
			C109.3161316,0.2915039,111.2165222,0,113.3053894,0z"/>
		<path fill="#231F20" d="M143.1784363,0.7285156c1.8212891,0,3.4550781,0.2001953,4.9003906,0.6010742
			c1.4443359,0.4008789,2.6650391,0.9833984,3.6611328,1.7485352c0.9951172,0.7651367,1.7607422,1.7001953,2.2949219,2.8051758
			c0.5341797,1.1054688,0.8017578,2.3623047,0.8017578,3.7705078c0,1.9433594-0.4863281,3.5830078-1.4570313,4.918457
			c-0.9716797,1.3359375-2.3681641,2.355957-4.1894531,3.0600586l6.0107422,8.5976563h-6.0107422l-5.3554688-7.6503906h-0.65625
			h-7.8320313v7.6503906h-5.2832031V0.7285156H143.1784363z M135.346405,3.4609375V15.847168h7.8320313
			c1.9189453,0,3.4003906-0.5039063,4.4443359-1.5117188s1.5673828-2.5683594,1.5673828-4.6816406
			c0-2.112793-0.5234375-3.6728516-1.5673828-4.6811523c-1.0439453-1.0073242-2.5253906-1.5117188-4.4443359-1.5117188H135.346405z"
			/>
		<path fill="#231F20" d="M173.0514832,0c2.1865234,0,4.171875,0.2915039,5.9570313,0.8740234
			c1.7851563,0.5830078,3.3144531,1.4453125,4.5898438,2.5869141s2.2646484,2.5498047,2.96875,4.2255859
			c0.7041016,1.6762695,1.0566406,3.6069336,1.0566406,5.7924805c0,2.1860352-0.3525391,4.1166992-1.0566406,5.7924805
			c-0.7041016,1.6762695-1.6933594,3.0849609-2.96875,4.2260742c-1.2753906,1.1420898-2.8046875,2.0039063-4.5898438,2.5869141
			c-1.7851563,0.5825195-3.7705078,0.8740234-5.9570313,0.8740234c-2.1855469,0-4.1777344-0.2915039-5.9746094-0.8740234
			c-1.7978516-0.5830078-3.3330078-1.4448242-4.6083984-2.5869141c-1.2753906-1.1411133-2.2587891-2.5498047-2.9511719-4.2260742
			c-0.6914063-1.6757813-1.0380859-3.6064453-1.0380859-5.7924805c0-2.1855469,0.3466797-4.1162109,1.0380859-5.7924805
			c0.6923828-1.6757813,1.6757813-3.0839844,2.9511719-4.2255859s2.8105469-2.0039063,4.6083984-2.5869141
			C168.8737488,0.2915039,170.8659363,0,173.0514832,0z M173.0514832,2.5498047c-1.2382813,0-2.3984375,0.21875-3.4785156,0.6557617
			c-1.0810547,0.4375-2.0224609,1.1054688-2.8232422,2.0039063c-0.8017578,0.8989258-1.4394531,2.0341797-1.9130859,3.40625
			c-0.4736328,1.3725586-0.7099609,2.9936523-0.7099609,4.8632813c0,1.8706055,0.2363281,3.4916992,0.7099609,4.8637695
			c0.4736328,1.3725586,1.1113281,2.5078125,1.9130859,3.40625c0.8007813,0.8989258,1.7421875,1.5664063,2.8232422,2.0039063
			c1.0800781,0.4370117,2.2402344,0.6552734,3.4785156,0.6552734c1.2392578,0,2.3984375-0.2182617,3.4794922-0.6552734
			c1.0800781-0.4375,2.0214844-1.1049805,2.8232422-2.0039063c0.8017578-0.8984375,1.4394531-2.0336914,1.9130859-3.40625
			c0.4736328-1.3720703,0.7099609-2.9931641,0.7099609-4.8637695c0-1.8696289-0.2363281-3.4907227-0.7099609-4.8632813
			c-0.4736328-1.3720703-1.1113281-2.5073242-1.9130859-3.40625c-0.8017578-0.8984375-1.7431641-1.5664063-2.8232422-2.0039063
			C175.4499207,2.7685547,174.290741,2.5498047,173.0514832,2.5498047z"/>
		<path fill="#231F20" d="M197.2780457,3.4609375v8.7431641h13.296875v2.7324219h-13.296875v11.293457h-5.2832031V0.7285156
			h22.9521484v2.7324219H197.2780457z"/>
		<path fill="#231F20" d="M230.2467957,0c2.1865234,0,4.171875,0.2915039,5.9570313,0.8740234
			c1.7851563,0.5830078,3.3144531,1.4453125,4.5898438,2.5869141s2.2646484,2.5498047,2.96875,4.2255859
			c0.7041016,1.6762695,1.0566406,3.6069336,1.0566406,5.7924805c0,2.1860352-0.3525391,4.1166992-1.0566406,5.7924805
			c-0.7041016,1.6762695-1.6933594,3.0849609-2.96875,4.2260742c-1.2753906,1.1420898-2.8046875,2.0039063-4.5898438,2.5869141
			c-1.7851563,0.5825195-3.7705078,0.8740234-5.9570313,0.8740234c-2.1855469,0-4.1777344-0.2915039-5.9746094-0.8740234
			c-1.7978516-0.5830078-3.3330078-1.4448242-4.6083984-2.5869141c-1.2753906-1.1411133-2.2587891-2.5498047-2.9511719-4.2260742
			c-0.6914063-1.6757813-1.0380859-3.6064453-1.0380859-5.7924805c0-2.1855469,0.3466797-4.1162109,1.0380859-5.7924805
			c0.6923828-1.6757813,1.6757813-3.0839844,2.9511719-4.2255859s2.8105469-2.0039063,4.6083984-2.5869141
			C226.0690613,0.2915039,228.0612488,0,230.2467957,0z M230.2467957,2.5498047c-1.2382813,0-2.3984375,0.21875-3.4785156,0.6557617
			c-1.0810547,0.4375-2.0224609,1.1054688-2.8232422,2.0039063c-0.8017578,0.8989258-1.4394531,2.0341797-1.9130859,3.40625
			c-0.4736328,1.3725586-0.7099609,2.9936523-0.7099609,4.8632813c0,1.8706055,0.2363281,3.4916992,0.7099609,4.8637695
			c0.4736328,1.3725586,1.1113281,2.5078125,1.9130859,3.40625c0.8007813,0.8989258,1.7421875,1.5664063,2.8232422,2.0039063
			c1.0800781,0.4370117,2.2402344,0.6552734,3.4785156,0.6552734c1.2392578,0,2.3984375-0.2182617,3.4794922-0.6552734
			c1.0800781-0.4375,2.0214844-1.1049805,2.8232422-2.0039063c0.8017578-0.8984375,1.4394531-2.0336914,1.9130859-3.40625
			c0.4736328-1.3720703,0.7099609-2.9931641,0.7099609-4.8637695c0-1.8696289-0.2363281-3.4907227-0.7099609-4.8632813
			c-0.4736328-1.3720703-1.1113281-2.5073242-1.9130859-3.40625c-0.8017578-0.8984375-1.7431641-1.5664063-2.8232422-2.0039063
			C232.6452332,2.7685547,231.4860535,2.5498047,230.2467957,2.5498047z"/>
		<path fill="#231F20" d="M262.306366,0.7285156c1.8212891,0,3.4550781,0.2001953,4.9003906,0.6010742
			c1.4443359,0.4008789,2.6650391,0.9833984,3.6611328,1.7485352c0.9951172,0.7651367,1.7607422,1.7001953,2.2949219,2.8051758
			c0.5341797,1.1054688,0.8017578,2.3623047,0.8017578,3.7705078c0,1.9433594-0.4863281,3.5830078-1.4570313,4.918457
			c-0.9716797,1.3359375-2.3681641,2.355957-4.1894531,3.0600586l6.0107422,8.5976563h-6.0107422l-5.3554688-7.6503906h-0.65625
			h-7.8320313v7.6503906h-5.2832031V0.7285156H262.306366z M254.4743347,3.4609375V15.847168h7.8320313
			c1.9189453,0,3.4003906-0.5039063,4.4443359-1.5117188s1.5673828-2.5683594,1.5673828-4.6816406
			c0-2.112793-0.5234375-3.6728516-1.5673828-4.6811523c-1.0439453-1.0073242-2.5253906-1.5117188-4.4443359-1.5117188H254.4743347z
			"/>
	</g>
</g>
<g>
	<g>
		<path fill="#231F20" d="M74.9411316,44.3647461l-2.1572266-4.6235352h-0.0615234l-0.6787109,5.8564453h-1.7871094
			l1.0478516-8.6303711h1.9111328l2.4658203,5.3632813h0.0615234l2.4658203-5.3632813h1.9111328l1.0478516,8.6303711h-1.7880859
			l-0.6777344-5.8564453h-0.0615234l-2.1582031,4.6235352H74.9411316z"/>
		<path fill="#231F20" d="M82.8337097,36.9672852h6.9042969v1.4179688h-5.1787109v2.2192383h3.5751953v1.4179688h-3.5751953
			v2.1572266h5.3017578v1.4179688h-7.0273438V36.9672852z"/>
		<path fill="#231F20" d="M93.3874207,39.1865234c0.2089844,0.7397461,0.7392578,1.2944336,1.7255859,1.2944336h1.2949219
			v-3.5136719h1.7255859v3.5136719h1.2949219c0.9863281,0,1.5166016-0.5546875,1.7265625-1.2944336l0.6162109-2.2192383h1.7880859
			l-0.6171875,2.2192383c-0.5302734,1.9111328-1.5410156,2.2192383-1.5410156,2.2192383v0.0615234l2.8359375,4.1303711h-2.0341797
			l-2.5273438-3.6987305h-1.5419922v3.6987305h-1.7255859v-3.6987305h-1.5410156l-2.5273438,3.6987305h-2.0341797
			l2.8349609-4.1303711v-0.0615234c0,0-1.0107422-0.3081055-1.5410156-2.2192383l-0.6162109-2.2192383h1.7880859
			L93.3874207,39.1865234z"/>
		<path fill="#231F20" d="M112.8561707,36.9672852v7.2124023h1.109375v3.2675781h-1.7255859v-1.8496094h-6.1650391v1.8496094
			h-1.7255859v-3.2675781h0.1230469c0.7402344,0,1.34375-0.6162109,1.4794922-1.7260742l0.6787109-5.4863281H112.8561707z
			 M106.9382019,44.1181641v0.0615234h4.1923828v-5.7944336h-2.8974609l-0.4931641,4.0683594
			C107.6784363,43.378418,106.9382019,44.1181641,106.9382019,44.1181641z"/>
		<path fill="#231F20" d="M118.158905,43.2548828h-0.7275391l-3.0205078-6.2875977h1.9101563l2.3427734,4.9931641h0.1240234
			l2.3417969-4.9931641h1.9111328l-4.0683594,8.6303711h-1.9111328L118.158905,43.2548828z"/>
		<path fill="#231F20" d="M132.1784363,36.9672852v8.6303711h-1.7265625v-3.5751953h-4.4384766v3.5751953h-1.7255859v-8.6303711
			h1.7255859v3.637207h4.4384766v-3.637207H132.1784363z"/>
		<path fill="#231F20" d="M142.596405,45.5976563h-1.8486328l-0.6787109-1.7260742h-4.2529297l-0.6787109,1.7260742h-1.8486328
			l3.5751953-8.6303711h2.1572266L142.596405,45.5976563z M136.4323425,42.3920898h3.0205078l-1.4794922-3.5756836h-0.0615234
			L136.4323425,42.3920898z"/>
		<path fill="#231F20" d="M147.6530457,36.9672852c2.4042969,0,3.6982422,1.2944336,3.6982422,2.9589844
			s-1.2939453,2.9589844-3.6982422,2.9589844h-2.2197266v2.7124023h-1.7255859v-8.6303711H147.6530457z M145.4333191,38.3852539
			v3.0820313h2.2197266c1.1708984,0,1.9101563-0.7397461,1.9101563-1.5410156s-0.7392578-1.5410156-1.9101563-1.5410156H145.4333191
			z"/>
		<path fill="#231F20" d="M156.3825378,36.7207031c2.7119141,0,4.6230469,1.9111328,4.6230469,4.5615234
			c0,2.6508789-1.9111328,4.5620117-4.6230469,4.5620117s-4.6230469-1.9111328-4.6230469-4.5620117
			C151.759491,38.6318359,153.6706238,36.7207031,156.3825378,36.7207031z M156.3825378,38.2001953
			c-1.6025391,0-2.8359375,1.2329102-2.8359375,3.0820313c0,1.8496094,1.2333984,3.0825195,2.8359375,3.0825195
			s2.8359375-1.2329102,2.8359375-3.0825195C159.2184753,39.4331055,157.9850769,38.2001953,156.3825378,38.2001953z"/>
		<path fill="#231F20" d="M169.7721863,36.9672852v7.2124023h1.109375v3.2675781h-1.7255859v-1.8496094h-6.1650391v1.8496094
			h-1.7255859v-3.2675781h0.1230469c0.7402344,0,1.34375-0.6162109,1.4794922-1.7260742l0.6787109-5.4863281H169.7721863z
			 M163.8542175,44.1181641v0.0615234h4.1923828v-5.7944336h-2.8974609l-0.4931641,4.0683594
			C164.5944519,43.378418,163.8542175,44.1181641,163.8542175,44.1181641z"/>
		<path fill="#231F20" d="M179.8591003,36.9672852v8.6303711h-1.7265625v-3.5751953h-4.4384766v3.5751953h-1.7255859v-8.6303711
			h1.7255859v3.637207h4.4384766v-3.637207H179.8591003z"/>
		<path fill="#231F20" d="M190.2780457,45.5976563h-1.8496094l-0.6787109-1.7260742h-4.2529297l-0.6787109,1.7260742h-1.8486328
			l3.5751953-8.6303711h2.1572266L190.2780457,45.5976563z M184.1130066,42.3920898h3.0205078l-1.4794922-3.5756836h-0.0615234
			L184.1130066,42.3920898z"/>
		<path fill="#231F20" d="M198.7604675,36.9672852v8.6303711h-1.7255859v-2.9589844h-2.4042969l-2.0957031,2.9589844h-1.9726563
			l2.3427734-3.2670898v-0.0620117c0,0-1.7265625-0.4931641-1.7265625-2.4658203
			c0-1.6640625,1.1591797-2.8354492,3.5751953-2.8354492H198.7604675z M194.7536316,41.2207031h2.28125v-2.8354492h-2.28125
			c-1.1708984,0-1.7871094,0.6162109-1.7871094,1.4174805C192.9665222,40.480957,193.5827332,41.2207031,194.7536316,41.2207031z"/>
		<path fill="#231F20" d="M212.7546082,45.5976563h-1.8486328l-0.6787109-1.7260742h-4.2529297l-0.6787109,1.7260742h-1.8486328
			l3.5751953-8.6303711h2.1572266L212.7546082,45.5976563z M206.5905457,42.3920898h3.0205078l-1.4794922-3.5756836h-0.0615234
			L206.5905457,42.3920898z"/>
		<path fill="#231F20" d="M213.8659363,36.9672852h6.4726563v1.4179688h-4.7470703v7.2124023h-1.7255859V36.9672852z"/>
		<path fill="#231F20" d="M225.3942566,36.9672852c2.4033203,0,3.6982422,1.2944336,3.6982422,2.9589844
			s-1.2949219,2.9589844-3.6982422,2.9589844H223.17453v2.7124023h-1.7255859v-8.6303711H225.3942566z M223.17453,38.3852539
			v3.0820313h2.2197266c1.1708984,0,1.9111328-0.7397461,1.9111328-1.5410156s-0.7402344-1.5410156-1.9111328-1.5410156H223.17453z"
			/>
		<path fill="#231F20" d="M238.6608582,45.5976563h-1.8486328l-0.6787109-1.7260742h-4.2529297l-0.6787109,1.7260742h-1.8486328
			l3.5751953-8.6303711h2.1572266L238.6608582,45.5976563z M232.4967957,42.3920898h3.0205078l-1.4794922-3.5756836h-0.0615234
			L232.4967957,42.3920898z"/>
		<path fill="#231F20" d="M243.7174988,36.9672852c2.4042969,0,3.6982422,1.2944336,3.6982422,2.9589844
			s-1.2939453,2.9589844-3.6982422,2.9589844h-2.2197266v2.7124023h-1.7255859v-8.6303711H243.7174988z M241.4977722,38.3852539
			v3.0820313h2.2197266c1.1708984,0,1.9101563-0.7397461,1.9101563-1.5410156s-0.7392578-1.5410156-1.9101563-1.5410156H241.4977722
			z"/>
		<path fill="#231F20" d="M256.6999207,36.9672852v8.6303711h-1.7265625v-3.5751953h-4.4384766v3.5751953h-1.7255859v-8.6303711
			h1.7255859v3.637207h4.4384766v-3.637207H256.6999207z"/>
		<path fill="#231F20" d="M267.1198425,45.5976563h-1.8496094l-0.6787109-1.7260742h-4.2529297l-0.6787109,1.7260742h-1.8486328
			l3.5751953-8.6303711h2.1572266L267.1198425,45.5976563z M260.9548035,42.3920898h3.0205078l-1.4794922-3.5756836h-0.0615234
			L260.9548035,42.3920898z"/>
		<path fill="#231F20" d="M275.6012878,36.9672852v8.6303711h-1.7255859v-2.9589844h-2.4042969l-2.0957031,2.9589844h-1.9726563
			l2.3417969-3.2670898v-0.0620117c0,0-1.7255859-0.4931641-1.7255859-2.4658203
			c0-1.6640625,1.1591797-2.8354492,3.5751953-2.8354492H275.6012878z M271.5944519,41.2207031h2.28125v-2.8354492h-2.28125
			c-1.1708984,0-1.7871094,0.6162109-1.7871094,1.4174805C269.8073425,40.480957,270.4235535,41.2207031,271.5944519,41.2207031z"/>
		<path fill="#231F20" d="M285.306366,45.5976563h-4.1298828v-8.6303711h6.8417969v1.4179688h-5.1162109v1.6645508h2.4042969
			c2.2197266,0,3.5136719,1.2944336,3.5136719,2.7739258S287.5260925,45.5976563,285.306366,45.5976563z M285.306366,44.1796875
			c1.109375,0,1.7255859-0.6162109,1.7255859-1.355957s-0.6162109-1.3564453-1.7255859-1.3564453h-2.4042969v2.7124023H285.306366z"
			/>
		<path fill="#231F20" d="M290.2145691,45.5976563v-8.6303711h1.7255859v5.9179688h0.0615234l4.3154297-5.9179688h1.7265625
			v8.6303711h-1.7265625v-5.9179688h-0.0615234l-4.3154297,5.9179688H290.2145691z"/>
		<path fill="#231F20" d="M303.98703,36.9672852c2.4042969,0,3.6982422,1.2944336,3.6982422,2.9589844
			s-1.2939453,2.9589844-3.6982422,2.9589844h-2.2197266v2.7124023h-1.7255859v-8.6303711H303.98703z M301.7673035,38.3852539
			v3.0820313h2.2197266c1.1708984,0,1.9101563-0.7397461,1.9101563-1.5410156s-0.7392578-1.5410156-1.9101563-1.5410156H301.7673035
			z"/>
		<path fill="#231F20" d="M311.2741394,39.1865234c0.2089844,0.7397461,0.7392578,1.2944336,1.7255859,1.2944336h1.2949219
			v-3.5136719h1.7255859v3.5136719h1.2949219c0.9863281,0,1.5166016-0.5546875,1.7265625-1.2944336l0.6162109-2.2192383h1.7880859
			l-0.6171875,2.2192383c-0.5302734,1.9111328-1.5410156,2.2192383-1.5410156,2.2192383v0.0615234l2.8359375,4.1303711h-2.0341797
			l-2.5273438-3.6987305h-1.5419922v3.6987305h-1.7255859v-3.6987305h-1.5410156l-2.5273438,3.6987305h-2.0341797
			l2.8349609-4.1303711v-0.0615234c0,0-1.0107422-0.3081055-1.5410156-2.2192383l-0.6162109-2.2192383h1.7880859
			L311.2741394,39.1865234z"/>
		<path fill="#231F20" d="M331.408905,45.5976563h-1.8496094l-0.6787109-1.7260742h-4.2529297l-0.6787109,1.7260742h-1.8486328
			l3.5751953-8.6303711h2.1572266L331.408905,45.5976563z M325.243866,42.3920898h3.0205078l-1.4794922-3.5756836h-0.0615234
			L325.243866,42.3920898z"/>
	</g>
</g>
<polygon fill="#A90F14" points="-0.0001342,45.6157341 6.5403194,45.6157341 6.5403194,26.4274178 -0.0001342,25.1186733 "/>
<polygon fill="#A90F14" points="54.5579758,45.6157341 47.9938622,45.6157341 47.9938622,26.3580055 54.5579758,25.0445251 "/>
<polygon fill="#231F20" points="23.6344833,17.6795425 -0.0000011,45.6157265 9.8141069,45.6157265 26.9175777,25.4863911 
	27.6001797,25.4863911 44.7038689,45.6157265 54.5179749,45.6157265 30.8834915,17.6795425 "/>
</svg>
